<svg viewBox="0 0 100 100" xmlns="http://www.w3.org/2000/svg">
  <path d="M50 75 C18 68 8 36 26 18 C36 50 44 64 50 75Z" fill="#F9A8C9"/>
  <path d="M50 75 C82 68 92 36 74 18 C64 50 56 64 50 75Z" fill="#F9A8C9"/>
  <path d="M50 75 C25 55 24 24 38 10 C44 42 48 60 50 75Z" fill="#F0A0C2"/>
  <path d="M50 75 C75 55 76 24 62 10 C56 42 52 60 50 75Z" fill="#F0A0C2"/>
  <path d="M50 75 C36 42 36 16 50 5 C64 16 64 42 50 75Z" fill="#E890B8"/>
  <circle cx="50" cy="72" r="10" fill="#F5C842"/>
  <circle cx="50" cy="72" r="5"  fill="#FFE060"/>
</svg>
