<svg width="680" height="680" viewBox="0 0 680 680" xmlns="http://www.w3.org/2000/svg">
<defs>
  <radialGradient id="bgd" cx="50%" cy="50%" r="50%">
    <stop offset="0%" stop-color="#1a1f2e"/>
    <stop offset="100%" stop-color="#0d1018"/>
  </radialGradient>
  <radialGradient id="cgd" cx="50%" cy="50%" r="50%">
    <stop offset="0%" stop-color="#FFD700"/>
    <stop offset="50%" stop-color="#E8A020"/>
    <stop offset="100%" stop-color="#C07010" stop-opacity="0"/>
  </radialGradient>
</defs>

<rect width="680" height="680" fill="url(#bgd)" rx="60"/>

<g transform="translate(340,340)">

  <!-- Fractal filaments — 36 spokes at 10deg -->
  <g opacity="0.22" stroke="#C060A0" stroke-width="0.5" fill="none">
    <g transform="rotate(0)">  <path d="M0,-155 L-8,-172 M0,-155 L8,-172 M-8,-172 L-14,-188 M-8,-172 L-3,-189 M8,-172 L3,-189 M8,-172 L14,-188 M-14,-188 L-18,-200 M-3,-189 L-6,-201 M3,-189 L6,-201 M14,-188 L18,-200"/></g>
    <g transform="rotate(10)"> <path d="M0,-155 L-8,-172 M0,-155 L8,-172 M-8,-172 L-14,-188 M-8,-172 L-3,-189 M8,-172 L3,-189 M8,-172 L14,-188 M-14,-188 L-18,-200 M-3,-189 L-6,-201 M3,-189 L6,-201 M14,-188 L18,-200"/></g>
    <g transform="rotate(20)"> <path d="M0,-155 L-8,-172 M0,-155 L8,-172 M-8,-172 L-14,-188 M-8,-172 L-3,-189 M8,-172 L3,-189 M8,-172 L14,-188 M-14,-188 L-18,-200 M-3,-189 L-6,-201 M3,-189 L6,-201 M14,-188 L18,-200"/></g>
    <g transform="rotate(30)"> <path d="M0,-155 L-8,-172 M0,-155 L8,-172 M-8,-172 L-14,-188 M-8,-172 L-3,-189 M8,-172 L3,-189 M8,-172 L14,-188 M-14,-188 L-18,-200 M-3,-189 L-6,-201 M3,-189 L6,-201 M14,-188 L18,-200"/></g>
    <g transform="rotate(40)"> <path d="M0,-155 L-8,-172 M0,-155 L8,-172 M-8,-172 L-14,-188 M-8,-172 L-3,-189 M8,-172 L3,-189 M8,-172 L14,-188 M-14,-188 L-18,-200 M-3,-189 L-6,-201 M3,-189 L6,-201 M14,-188 L18,-200"/></g>
    <g transform="rotate(50)"> <path d="M0,-155 L-8,-172 M0,-155 L8,-172 M-8,-172 L-14,-188 M-8,-172 L-3,-189 M8,-172 L3,-189 M8,-172 L14,-188 M-14,-188 L-18,-200 M-3,-189 L-6,-201 M3,-189 L6,-201 M14,-188 L18,-200"/></g>
    <g transform="rotate(60)"> <path d="M0,-155 L-8,-172 M0,-155 L8,-172 M-8,-172 L-14,-188 M-8,-172 L-3,-189 M8,-172 L3,-189 M8,-172 L14,-188 M-14,-188 L-18,-200 M-3,-189 L-6,-201 M3,-189 L6,-201 M14,-188 L18,-200"/></g>
    <g transform="rotate(70)"> <path d="M0,-155 L-8,-172 M0,-155 L8,-172 M-8,-172 L-14,-188 M-8,-172 L-3,-189 M8,-172 L3,-189 M8,-172 L14,-188 M-14,-188 L-18,-200 M-3,-189 L-6,-201 M3,-189 L6,-201 M14,-188 L18,-200"/></g>
    <g transform="rotate(80)"> <path d="M0,-155 L-8,-172 M0,-155 L8,-172 M-8,-172 L-14,-188 M-8,-172 L-3,-189 M8,-172 L3,-189 M8,-172 L14,-188 M-14,-188 L-18,-200 M-3,-189 L-6,-201 M3,-189 L6,-201 M14,-188 L18,-200"/></g>
    <g transform="rotate(90)"> <path d="M0,-155 L-8,-172 M0,-155 L8,-172 M-8,-172 L-14,-188 M-8,-172 L-3,-189 M8,-172 L3,-189 M8,-172 L14,-188 M-14,-188 L-18,-200 M-3,-189 L-6,-201 M3,-189 L6,-201 M14,-188 L18,-200"/></g>
    <g transform="rotate(100)"><path d="M0,-155 L-8,-172 M0,-155 L8,-172 M-8,-172 L-14,-188 M-8,-172 L-3,-189 M8,-172 L3,-189 M8,-172 L14,-188 M-14,-188 L-18,-200 M-3,-189 L-6,-201 M3,-189 L6,-201 M14,-188 L18,-200"/></g>
    <g transform="rotate(110)"><path d="M0,-155 L-8,-172 M0,-155 L8,-172 M-8,-172 L-14,-188 M-8,-172 L-3,-189 M8,-172 L3,-189 M8,-172 L14,-188 M-14,-188 L-18,-200 M-3,-189 L-6,-201 M3,-189 L6,-201 M14,-188 L18,-200"/></g>
    <g transform="rotate(120)"><path d="M0,-155 L-8,-172 M0,-155 L8,-172 M-8,-172 L-14,-188 M-8,-172 L-3,-189 M8,-172 L3,-189 M8,-172 L14,-188 M-14,-188 L-18,-200 M-3,-189 L-6,-201 M3,-189 L6,-201 M14,-188 L18,-200"/></g>
    <g transform="rotate(130)"><path d="M0,-155 L-8,-172 M0,-155 L8,-172 M-8,-172 L-14,-188 M-8,-172 L-3,-189 M8,-172 L3,-189 M8,-172 L14,-188 M-14,-188 L-18,-200 M-3,-189 L-6,-201 M3,-189 L6,-201 M14,-188 L18,-200"/></g>
    <g transform="rotate(140)"><path d="M0,-155 L-8,-172 M0,-155 L8,-172 M-8,-172 L-14,-188 M-8,-172 L-3,-189 M8,-172 L3,-189 M8,-172 L14,-188 M-14,-188 L-18,-200 M-3,-189 L-6,-201 M3,-189 L6,-201 M14,-188 L18,-200"/></g>
    <g transform="rotate(150)"><path d="M0,-155 L-8,-172 M0,-155 L8,-172 M-8,-172 L-14,-188 M-8,-172 L-3,-189 M8,-172 L3,-189 M8,-172 L14,-188 M-14,-188 L-18,-200 M-3,-189 L-6,-201 M3,-189 L6,-201 M14,-188 L18,-200"/></g>
    <g transform="rotate(160)"><path d="M0,-155 L-8,-172 M0,-155 L8,-172 M-8,-172 L-14,-188 M-8,-172 L-3,-189 M8,-172 L3,-189 M8,-172 L14,-188 M-14,-188 L-18,-200 M-3,-189 L-6,-201 M3,-189 L6,-201 M14,-188 L18,-200"/></g>
    <g transform="rotate(170)"><path d="M0,-155 L-8,-172 M0,-155 L8,-172 M-8,-172 L-14,-188 M-8,-172 L-3,-189 M8,-172 L3,-189 M8,-172 L14,-188 M-14,-188 L-18,-200 M-3,-189 L-6,-201 M3,-189 L6,-201 M14,-188 L18,-200"/></g>
    <g transform="rotate(180)"><path d="M0,-155 L-8,-172 M0,-155 L8,-172 M-8,-172 L-14,-188 M-8,-172 L-3,-189 M8,-172 L3,-189 M8,-172 L14,-188 M-14,-188 L-18,-200 M-3,-189 L-6,-201 M3,-189 L6,-201 M14,-188 L18,-200"/></g>
    <g transform="rotate(190)"><path d="M0,-155 L-8,-172 M0,-155 L8,-172 M-8,-172 L-14,-188 M-8,-172 L-3,-189 M8,-172 L3,-189 M8,-172 L14,-188 M-14,-188 L-18,-200 M-3,-189 L-6,-201 M3,-189 L6,-201 M14,-188 L18,-200"/></g>
    <g transform="rotate(200)"><path d="M0,-155 L-8,-172 M0,-155 L8,-172 M-8,-172 L-14,-188 M-8,-172 L-3,-189 M8,-172 L3,-189 M8,-172 L14,-188 M-14,-188 L-18,-200 M-3,-189 L-6,-201 M3,-189 L6,-201 M14,-188 L18,-200"/></g>
    <g transform="rotate(210)"><path d="M0,-155 L-8,-172 M0,-155 L8,-172 M-8,-172 L-14,-188 M-8,-172 L-3,-189 M8,-172 L3,-189 M8,-172 L14,-188 M-14,-188 L-18,-200 M-3,-189 L-6,-201 M3,-189 L6,-201 M14,-188 L18,-200"/></g>
    <g transform="rotate(220)"><path d="M0,-155 L-8,-172 M0,-155 L8,-172 M-8,-172 L-14,-188 M-8,-172 L-3,-189 M8,-172 L3,-189 M8,-172 L14,-188 M-14,-188 L-18,-200 M-3,-189 L-6,-201 M3,-189 L6,-201 M14,-188 L18,-200"/></g>
    <g transform="rotate(230)"><path d="M0,-155 L-8,-172 M0,-155 L8,-172 M-8,-172 L-14,-188 M-8,-172 L-3,-189 M8,-172 L3,-189 M8,-172 L14,-188 M-14,-188 L-18,-200 M-3,-189 L-6,-201 M3,-189 L6,-201 M14,-188 L18,-200"/></g>
    <g transform="rotate(240)"><path d="M0,-155 L-8,-172 M0,-155 L8,-172 M-8,-172 L-14,-188 M-8,-172 L-3,-189 M8,-172 L3,-189 M8,-172 L14,-188 M-14,-188 L-18,-200 M-3,-189 L-6,-201 M3,-189 L6,-201 M14,-188 L18,-200"/></g>
    <g transform="rotate(250)"><path d="M0,-155 L-8,-172 M0,-155 L8,-172 M-8,-172 L-14,-188 M-8,-172 L-3,-189 M8,-172 L3,-189 M8,-172 L14,-188 M-14,-188 L-18,-200 M-3,-189 L-6,-201 M3,-189 L6,-201 M14,-188 L18,-200"/></g>
    <g transform="rotate(260)"><path d="M0,-155 L-8,-172 M0,-155 L8,-172 M-8,-172 L-14,-188 M-8,-172 L-3,-189 M8,-172 L3,-189 M8,-172 L14,-188 M-14,-188 L-18,-200 M-3,-189 L-6,-201 M3,-189 L6,-201 M14,-188 L18,-200"/></g>
    <g transform="rotate(270)"><path d="M0,-155 L-8,-172 M0,-155 L8,-172 M-8,-172 L-14,-188 M-8,-172 L-3,-189 M8,-172 L3,-189 M8,-172 L14,-188 M-14,-188 L-18,-200 M-3,-189 L-6,-201 M3,-189 L6,-201 M14,-188 L18,-200"/></g>
    <g transform="rotate(280)"><path d="M0,-155 L-8,-172 M0,-155 L8,-172 M-8,-172 L-14,-188 M-8,-172 L-3,-189 M8,-172 L3,-189 M8,-172 L14,-188 M-14,-188 L-18,-200 M-3,-189 L-6,-201 M3,-189 L6,-201 M14,-188 L18,-200"/></g>
    <g transform="rotate(290)"><path d="M0,-155 L-8,-172 M0,-155 L8,-172 M-8,-172 L-14,-188 M-8,-172 L-3,-189 M8,-172 L3,-189 M8,-172 L14,-188 M-14,-188 L-18,-200 M-3,-189 L-6,-201 M3,-189 L6,-201 M14,-188 L18,-200"/></g>
    <g transform="rotate(300)"><path d="M0,-155 L-8,-172 M0,-155 L8,-172 M-8,-172 L-14,-188 M-8,-172 L-3,-189 M8,-172 L3,-189 M8,-172 L14,-188 M-14,-188 L-18,-200 M-3,-189 L-6,-201 M3,-189 L6,-201 M14,-188 L18,-200"/></g>
    <g transform="rotate(310)"><path d="M0,-155 L-8,-172 M0,-155 L8,-172 M-8,-172 L-14,-188 M-8,-172 L-3,-189 M8,-172 L3,-189 M8,-172 L14,-188 M-14,-188 L-18,-200 M-3,-189 L-6,-201 M3,-189 L6,-201 M14,-188 L18,-200"/></g>
    <g transform="rotate(320)"><path d="M0,-155 L-8,-172 M0,-155 L8,-172 M-8,-172 L-14,-188 M-8,-172 L-3,-189 M8,-172 L3,-189 M8,-172 L14,-188 M-14,-188 L-18,-200 M-3,-189 L-6,-201 M3,-189 L6,-201 M14,-188 L18,-200"/></g>
    <g transform="rotate(330)"><path d="M0,-155 L-8,-172 M0,-155 L8,-172 M-8,-172 L-14,-188 M-8,-172 L-3,-189 M8,-172 L3,-189 M8,-172 L14,-188 M-14,-188 L-18,-200 M-3,-189 L-6,-201 M3,-189 L6,-201 M14,-188 L18,-200"/></g>
    <g transform="rotate(340)"><path d="M0,-155 L-8,-172 M0,-155 L8,-172 M-8,-172 L-14,-188 M-8,-172 L-3,-189 M8,-172 L3,-189 M8,-172 L14,-188 M-14,-188 L-18,-200 M-3,-189 L-6,-201 M3,-189 L6,-201 M14,-188 L18,-200"/></g>
    <g transform="rotate(350)"><path d="M0,-155 L-8,-172 M0,-155 L8,-172 M-8,-172 L-14,-188 M-8,-172 L-3,-189 M8,-172 L3,-189 M8,-172 L14,-188 M-14,-188 L-18,-200 M-3,-189 L-6,-201 M3,-189 L6,-201 M14,-188 L18,-200"/></g>
  </g>

  <!-- Outer petals — 24 at 15deg -->
  <g opacity="0.6">
    <g transform="rotate(0)">  <path d="M0,-62 C-18,-82 -19,-132 0,-158 C19,-132 18,-82 0,-62Z" fill="#F4A8C8" stroke="#C8607A" stroke-width="0.7"/></g>
    <g transform="rotate(15)"> <path d="M0,-62 C-18,-82 -19,-132 0,-158 C19,-132 18,-82 0,-62Z" fill="#F8C0D8" stroke="#C8607A" stroke-width="0.7"/></g>
    <g transform="rotate(30)"> <path d="M0,-62 C-18,-82 -19,-132 0,-158 C19,-132 18,-82 0,-62Z" fill="#F4A8C8" stroke="#C8607A" stroke-width="0.7"/></g>
    <g transform="rotate(45)"> <path d="M0,-62 C-18,-82 -19,-132 0,-158 C19,-132 18,-82 0,-62Z" fill="#F8C0D8" stroke="#C8607A" stroke-width="0.7"/></g>
    <g transform="rotate(60)"> <path d="M0,-62 C-18,-82 -19,-132 0,-158 C19,-132 18,-82 0,-62Z" fill="#F4A8C8" stroke="#C8607A" stroke-width="0.7"/></g>
    <g transform="rotate(75)"> <path d="M0,-62 C-18,-82 -19,-132 0,-158 C19,-132 18,-82 0,-62Z" fill="#F8C0D8" stroke="#C8607A" stroke-width="0.7"/></g>
    <g transform="rotate(90)"> <path d="M0,-62 C-18,-82 -19,-132 0,-158 C19,-132 18,-82 0,-62Z" fill="#F4A8C8" stroke="#C8607A" stroke-width="0.7"/></g>
    <g transform="rotate(105)"><path d="M0,-62 C-18,-82 -19,-132 0,-158 C19,-132 18,-82 0,-62Z" fill="#F8C0D8" stroke="#C8607A" stroke-width="0.7"/></g>
    <g transform="rotate(120)"><path d="M0,-62 C-18,-82 -19,-132 0,-158 C19,-132 18,-82 0,-62Z" fill="#F4A8C8" stroke="#C8607A" stroke-width="0.7"/></g>
    <g transform="rotate(135)"><path d="M0,-62 C-18,-82 -19,-132 0,-158 C19,-132 18,-82 0,-62Z" fill="#F8C0D8" stroke="#C8607A" stroke-width="0.7"/></g>
    <g transform="rotate(150)"><path d="M0,-62 C-18,-82 -19,-132 0,-158 C19,-132 18,-82 0,-62Z" fill="#F4A8C8" stroke="#C8607A" stroke-width="0.7"/></g>
    <g transform="rotate(165)"><path d="M0,-62 C-18,-82 -19,-132 0,-158 C19,-132 18,-82 0,-62Z" fill="#F8C0D8" stroke="#C8607A" stroke-width="0.7"/></g>
    <g transform="rotate(180)"><path d="M0,-62 C-18,-82 -19,-132 0,-158 C19,-132 18,-82 0,-62Z" fill="#F4A8C8" stroke="#C8607A" stroke-width="0.7"/></g>
    <g transform="rotate(195)"><path d="M0,-62 C-18,-82 -19,-132 0,-158 C19,-132 18,-82 0,-62Z" fill="#F8C0D8" stroke="#C8607A" stroke-width="0.7"/></g>
    <g transform="rotate(210)"><path d="M0,-62 C-18,-82 -19,-132 0,-158 C19,-132 18,-82 0,-62Z" fill="#F4A8C8" stroke="#C8607A" stroke-width="0.7"/></g>
    <g transform="rotate(225)"><path d="M0,-62 C-18,-82 -19,-132 0,-158 C19,-132 18,-82 0,-62Z" fill="#F8C0D8" stroke="#C8607A" stroke-width="0.7"/></g>
    <g transform="rotate(240)"><path d="M0,-62 C-18,-82 -19,-132 0,-158 C19,-132 18,-82 0,-62Z" fill="#F4A8C8" stroke="#C8607A" stroke-width="0.7"/></g>
    <g transform="rotate(255)"><path d="M0,-62 C-18,-82 -19,-132 0,-158 C19,-132 18,-82 0,-62Z" fill="#F8C0D8" stroke="#C8607A" stroke-width="0.7"/></g>
    <g transform="rotate(270)"><path d="M0,-62 C-18,-82 -19,-132 0,-158 C19,-132 18,-82 0,-62Z" fill="#F4A8C8" stroke="#C8607A" stroke-width="0.7"/></g>
    <g transform="rotate(285)"><path d="M0,-62 C-18,-82 -19,-132 0,-158 C19,-132 18,-82 0,-62Z" fill="#F8C0D8" stroke="#C8607A" stroke-width="0.7"/></g>
    <g transform="rotate(300)"><path d="M0,-62 C-18,-82 -19,-132 0,-158 C19,-132 18,-82 0,-62Z" fill="#F4A8C8" stroke="#C8607A" stroke-width="0.7"/></g>
    <g transform="rotate(315)"><path d="M0,-62 C-18,-82 -19,-132 0,-158 C19,-132 18,-82 0,-62Z" fill="#F8C0D8" stroke="#C8607A" stroke-width="0.7"/></g>
    <g transform="rotate(330)"><path d="M0,-62 C-18,-82 -19,-132 0,-158 C19,-132 18,-82 0,-62Z" fill="#F4A8C8" stroke="#C8607A" stroke-width="0.7"/></g>
    <g transform="rotate(345)"><path d="M0,-62 C-18,-82 -19,-132 0,-158 C19,-132 18,-82 0,-62Z" fill="#F8C0D8" stroke="#C8607A" stroke-width="0.7"/></g>
  </g>

  <!-- Mid petals — 16 at 22.5deg -->
  <g opacity="0.82">
    <g transform="rotate(0)">    <path d="M0,-38 C-13,-54 -14,-88 0,-108 C14,-88 13,-54 0,-38Z" fill="#D4709A" stroke="#A04070" stroke-width="0.8"/></g>
    <g transform="rotate(22.5)"> <path d="M0,-38 C-13,-54 -14,-88 0,-108 C14,-88 13,-54 0,-38Z" fill="#E080AA" stroke="#A04070" stroke-width="0.8"/></g>
    <g transform="rotate(45)">   <path d="M0,-38 C-13,-54 -14,-88 0,-108 C14,-88 13,-54 0,-38Z" fill="#D4709A" stroke="#A04070" stroke-width="0.8"/></g>
    <g transform="rotate(67.5)"> <path d="M0,-38 C-13,-54 -14,-88 0,-108 C14,-88 13,-54 0,-38Z" fill="#E080AA" stroke="#A04070" stroke-width="0.8"/></g>
    <g transform="rotate(90)">   <path d="M0,-38 C-13,-54 -14,-88 0,-108 C14,-88 13,-54 0,-38Z" fill="#D4709A" stroke="#A04070" stroke-width="0.8"/></g>
    <g transform="rotate(112.5)"><path d="M0,-38 C-13,-54 -14,-88 0,-108 C14,-88 13,-54 0,-38Z" fill="#E080AA" stroke="#A04070" stroke-width="0.8"/></g>
    <g transform="rotate(135)">  <path d="M0,-38 C-13,-54 -14,-88 0,-108 C14,-88 13,-54 0,-38Z" fill="#D4709A" stroke="#A04070" stroke-width="0.8"/></g>
    <g transform="rotate(157.5)"><path d="M0,-38 C-13,-54 -14,-88 0,-108 C14,-88 13,-54 0,-38Z" fill="#E080AA" stroke="#A04070" stroke-width="0.8"/></g>
    <g transform="rotate(180)">  <path d="M0,-38 C-13,-54 -14,-88 0,-108 C14,-88 13,-54 0,-38Z" fill="#D4709A" stroke="#A04070" stroke-width="0.8"/></g>
    <g transform="rotate(202.5)"><path d="M0,-38 C-13,-54 -14,-88 0,-108 C14,-88 13,-54 0,-38Z" fill="#E080AA" stroke="#A04070" stroke-width="0.8"/></g>
    <g transform="rotate(225)">  <path d="M0,-38 C-13,-54 -14,-88 0,-108 C14,-88 13,-54 0,-38Z" fill="#D4709A" stroke="#A04070" stroke-width="0.8"/></g>
    <g transform="rotate(247.5)"><path d="M0,-38 C-13,-54 -14,-88 0,-108 C14,-88 13,-54 0,-38Z" fill="#E080AA" stroke="#A04070" stroke-width="0.8"/></g>
    <g transform="rotate(270)">  <path d="M0,-38 C-13,-54 -14,-88 0,-108 C14,-88 13,-54 0,-38Z" fill="#D4709A" stroke="#A04070" stroke-width="0.8"/></g>
    <g transform="rotate(292.5)"><path d="M0,-38 C-13,-54 -14,-88 0,-108 C14,-88 13,-54 0,-38Z" fill="#E080AA" stroke="#A04070" stroke-width="0.8"/></g>
    <g transform="rotate(315)">  <path d="M0,-38 C-13,-54 -14,-88 0,-108 C14,-88 13,-54 0,-38Z" fill="#D4709A" stroke="#A04070" stroke-width="0.8"/></g>
    <g transform="rotate(337.5)"><path d="M0,-38 C-13,-54 -14,-88 0,-108 C14,-88 13,-54 0,-38Z" fill="#E080AA" stroke="#A04070" stroke-width="0.8"/></g>
  </g>

  <!-- Inner petals — 12 at 30deg -->
  <g opacity="0.95">
    <g transform="rotate(0)">  <path d="M0,-20 C-9,-30 -10,-52 0,-65 C10,-52 9,-30 0,-20Z" fill="#C05080" stroke="#802050" stroke-width="1"/></g>
    <g transform="rotate(30)"> <path d="M0,-20 C-9,-30 -10,-52 0,-65 C10,-52 9,-30 0,-20Z" fill="#C05080" stroke="#802050" stroke-width="1"/></g>
    <g transform="rotate(60)"> <path d="M0,-20 C-9,-30 -10,-52 0,-65 C10,-52 9,-30 0,-20Z" fill="#C05080" stroke="#802050" stroke-width="1"/></g>
    <g transform="rotate(90)"> <path d="M0,-20 C-9,-30 -10,-52 0,-65 C10,-52 9,-30 0,-20Z" fill="#C05080" stroke="#802050" stroke-width="1"/></g>
    <g transform="rotate(120)"><path d="M0,-20 C-9,-30 -10,-52 0,-65 C10,-52 9,-30 0,-20Z" fill="#C05080" stroke="#802050" stroke-width="1"/></g>
    <g transform="rotate(150)"><path d="M0,-20 C-9,-30 -10,-52 0,-65 C10,-52 9,-30 0,-20Z" fill="#C05080" stroke="#802050" stroke-width="1"/></g>
    <g transform="rotate(180)"><path d="M0,-20 C-9,-30 -10,-52 0,-65 C10,-52 9,-30 0,-20Z" fill="#C05080" stroke="#802050" stroke-width="1"/></g>
    <g transform="rotate(210)"><path d="M0,-20 C-9,-30 -10,-52 0,-65 C10,-52 9,-30 0,-20Z" fill="#C05080" stroke="#802050" stroke-width="1"/></g>
    <g transform="rotate(240)"><path d="M0,-20 C-9,-30 -10,-52 0,-65 C10,-52 9,-30 0,-20Z" fill="#C05080" stroke="#802050" stroke-width="1"/></g>
    <g transform="rotate(270)"><path d="M0,-20 C-9,-30 -10,-52 0,-65 C10,-52 9,-30 0,-20Z" fill="#C05080" stroke="#802050" stroke-width="1"/></g>
    <g transform="rotate(300)"><path d="M0,-20 C-9,-30 -10,-52 0,-65 C10,-52 9,-30 0,-20Z" fill="#C05080" stroke="#802050" stroke-width="1"/></g>
    <g transform="rotate(330)"><path d="M0,-20 C-9,-30 -10,-52 0,-65 C10,-52 9,-30 0,-20Z" fill="#C05080" stroke="#802050" stroke-width="1"/></g>
  </g>

  <!-- Spoke lines — 24 at 15deg -->
  <g stroke="#904070" stroke-width="0.6" opacity="0.35">
    <line x1="0" y1="0" x2="0" y2="-160" transform="rotate(0)"/>
    <line x1="0" y1="0" x2="0" y2="-160" transform="rotate(15)"/>
    <line x1="0" y1="0" x2="0" y2="-160" transform="rotate(30)"/>
    <line x1="0" y1="0" x2="0" y2="-160" transform="rotate(45)"/>
    <line x1="0" y1="0" x2="0" y2="-160" transform="rotate(60)"/>
    <line x1="0" y1="0" x2="0" y2="-160" transform="rotate(75)"/>
    <line x1="0" y1="0" x2="0" y2="-160" transform="rotate(90)"/>
    <line x1="0" y1="0" x2="0" y2="-160" transform="rotate(105)"/>
    <line x1="0" y1="0" x2="0" y2="-160" transform="rotate(120)"/>
    <line x1="0" y1="0" x2="0" y2="-160" transform="rotate(135)"/>
    <line x1="0" y1="0" x2="0" y2="-160" transform="rotate(150)"/>
    <line x1="0" y1="0" x2="0" y2="-160" transform="rotate(165)"/>
    <line x1="0" y1="0" x2="0" y2="-160" transform="rotate(180)"/>
    <line x1="0" y1="0" x2="0" y2="-160" transform="rotate(195)"/>
    <line x1="0" y1="0" x2="0" y2="-160" transform="rotate(210)"/>
    <line x1="0" y1="0" x2="0" y2="-160" transform="rotate(225)"/>
    <line x1="0" y1="0" x2="0" y2="-160" transform="rotate(240)"/>
    <line x1="0" y1="0" x2="0" y2="-160" transform="rotate(255)"/>
    <line x1="0" y1="0" x2="0" y2="-160" transform="rotate(270)"/>
    <line x1="0" y1="0" x2="0" y2="-160" transform="rotate(285)"/>
    <line x1="0" y1="0" x2="0" y2="-160" transform="rotate(300)"/>
    <line x1="0" y1="0" x2="0" y2="-160" transform="rotate(315)"/>
    <line x1="0" y1="0" x2="0" y2="-160" transform="rotate(330)"/>
    <line x1="0" y1="0" x2="0" y2="-160" transform="rotate(345)"/>
  </g>

  <!-- Golden center -->
  <circle cx="0" cy="0" r="26" fill="url(#cgd)" opacity="0.95"/>
  <circle cx="0" cy="0" r="16" fill="#D4A017"/>
  <circle cx="0" cy="0" r="9"  fill="#FFD700"/>
  <circle cx="0" cy="0" r="4"  fill="#FFF5C0"/>

</g>

<text x="340" y="568" text-anchor="middle" font-family="Georgia, serif" font-size="62" font-weight="700" fill="#FF6B47" letter-spacing="2">LearnLang</text>
<text x="340" y="612" text-anchor="middle" font-family="Georgia, serif" font-size="18" fill="#FFFFFF" letter-spacing="1" opacity="0.85">your daily language companion</text>
</svg>
